# xmcd CD database file
#
# Track frame offsets:
#	150
#	20780
#	41457
#
# Disc length: 815 seconds
#
# Revision: 5
# Processed by: cddbd v1.5.2PL0 Copyright (c) Steve Scherf et al.
# Submitted via: CDex 1.79
#
DISCID=1e032d03
DTITLE=Evanescence - My Immortal
DYEAR=2003
DGENRE=Rock
TTITLE0=My Immortal (band version, no strings)
TTITLE1=My Immortal (band version, guitars down)
TTITLE2=My Immortal (album version)
EXTD=YEAR: 2003
EXTT0=
EXTT1=
EXTT2=
PLAYORDER=
